<?xml version="1.0" encoding="UTF-8" standalone="no"?>
<svg xmlns="http://www.w3.org/2000/svg"
     viewBox="0 0 96 96"
     height="96"
     width="96">
    <path d="M 48.021484 0 A 6.6815767 6.6835271 0 0 0 42.025391 3.703125 L 30.320312 27.185547 L 5.53125 31.615234 A 6.6815767 6.6835271 0 0 0 1.796875 42.757812 L 19.576172 61.878906 L 15.876953 88.371094 A 6.6815767 6.6835271 0 0 0 25.595703 95.21875 L 48.001953 83.527344 L 70.416016 95.236328 A 6.6815767 6.6835271 0 0 0 80.134766 88.388672 L 76.429688 61.878906 L 94.203125 42.763672 A 6.6815767 6.6835271 0 0 0 95.654297 36.080078 A 6.6815767 6.6835271 0 0 0 90.521484 31.626953 L 65.683594 27.185547 L 53.986328 3.703125 A 6.6815767 6.6835271 0 0 0 48.021484 0 z M 68.716797 37.216797 A 4.308435 4.308435 0 0 1 72.810547 39.945312 A 4.308435 4.308435 0 0 1 70.378906 45.533203 C 57.663832 50.538499 51.982824 59.383167 45.121094 69.240234 L 42.226562 73.396484 L 24.419922 56.154297 A 4.308435 4.308435 0 0 1 24.322266 50.0625 A 4.308435 4.308435 0 0 1 30.414062 49.964844 L 40.974609 60.189453 C 47.029031 51.604833 54.144996 42.663653 67.222656 37.515625 A 4.308435 4.308435 0 0 1 68.716797 37.216797 z "
          fill="rgba(249, 249, 250, .8)"/>
</svg>
