<?xml version="1.0" encoding="UTF-8" standalone="no"?>
<!-- Created with Inkscape (http://www.inkscape.org/) -->

<svg
   xmlns:dc="http://purl.org/dc/elements/1.1/"
   xmlns:cc="http://creativecommons.org/ns#"
   xmlns:rdf="http://www.w3.org/1999/02/22-rdf-syntax-ns#"
   xmlns:svg="http://www.w3.org/2000/svg"
   xmlns="http://www.w3.org/2000/svg"
   xmlns:sodipodi="http://sodipodi.sourceforge.net/DTD/sodipodi-0.dtd"
   xmlns:inkscape="http://www.inkscape.org/namespaces/inkscape"
   width="136.82881mm"
   height="136.82881mm"
   viewBox="0 0 136.82881 136.82881"
   version="1.1"
   id="svg38"
   inkscape:version="0.92.2 (5c3e80d, 2017-08-06)"
   sodipodi:docname="checkmarks-inkscape.svg">
  <defs
     id="defs32">
    <marker
       inkscape:stockid="TriangleInL"
       orient="auto"
       refY="0"
       refX="0"
       id="TriangleInL"
       style="overflow:visible"
       inkscape:isstock="true">
      <path
         id="path4681"
         d="M 5.77,0 -2.88,5 V -5 Z"
         style="fill:#000000;fill-opacity:1;fill-rule:evenodd;stroke:#000000;stroke-width:1.00000003pt;stroke-opacity:1"
         transform="scale(-0.8)"
         inkscape:connector-curvature="0" />
    </marker>
    <marker
       inkscape:stockid="Arrow2Lend"
       orient="auto"
       refY="0"
       refX="0"
       id="Arrow2Lend"
       style="overflow:visible"
       inkscape:isstock="true">
      <path
         id="path4569"
         style="fill:#000000;fill-opacity:1;fill-rule:evenodd;stroke:#000000;stroke-width:0.625;stroke-linejoin:round;stroke-opacity:1"
         d="M 8.7185878,4.0337352 -2.2072895,0.01601326 8.7185884,-4.0017078 c -1.7454984,2.3720609 -1.7354408,5.6174519 -6e-7,8.035443 z"
         transform="matrix(-1.1,0,0,-1.1,-1.1,0)"
         inkscape:connector-curvature="0" />
    </marker>
    <inkscape:path-effect
       effect="spiro"
       id="path-effect52"
       is_visible="true" />
  </defs>
  <sodipodi:namedview
     id="base"
     pagecolor="#ffffff"
     bordercolor="#666666"
     borderopacity="1.0"
     inkscape:pageopacity="0.0"
     inkscape:pageshadow="2"
     inkscape:zoom="0.49497475"
     inkscape:cx="0.55853564"
     inkscape:cy="-57.121643"
     inkscape:document-units="mm"
     inkscape:current-layer="layer1"
     showgrid="false"
     showguides="true"
     inkscape:guide-bbox="true"
     fit-margin-top="0"
     fit-margin-left="0"
     fit-margin-right="0"
     fit-margin-bottom="0"
     inkscape:window-width="2560"
     inkscape:window-height="1376"
     inkscape:window-x="0"
     inkscape:window-y="27"
     inkscape:window-maximized="1">
    <inkscape:grid
       type="xygrid"
       id="grid14268"
       originx="-82.372169"
       originy="-163.2801" />
  </sodipodi:namedview>
  <metadata
     id="metadata35">
    <rdf:RDF>
      <cc:Work
         rdf:about="">
        <dc:format>image/svg+xml</dc:format>
        <dc:type
           rdf:resource="http://purl.org/dc/dcmitype/StillImage" />
        <dc:title></dc:title>
      </cc:Work>
    </rdf:RDF>
  </metadata>
  <g
     inkscape:label="Layer 1"
     inkscape:groupmode="layer"
     id="layer1"
     transform="translate(-42.453781,-77.426277)">
    <path
       sodipodi:type="star"
       id="path40"
       sodipodi:sides="5"
       sodipodi:cx="-108.22068"
       sodipodi:cy="-145.15471"
       sodipodi:r1="48.745777"
       sodipodi:r2="27.297642"
       sodipodi:arg1="1.6111784"
       sodipodi:arg2="2.2394969"
       inkscape:flatsided="false"
       inkscape:rounded="0.18"
       inkscape:randomized="0"
       d="m -110.1886,-96.448671 c -5.59654,-0.226123 -10.56093,-23.815049 -14.95572,-27.287549 -4.39478,-3.4725 -28.4923,-2.8466 -30.00668,-8.2391 -1.51437,-5.3925 19.38595,-17.4033 21.33043,-22.65604 1.94448,-5.25275 -6.09733,-27.97745 -1.43672,-31.08408 4.66061,-3.10662 22.54211,13.05922 28.13864,13.28534 5.59654,0.22613 24.723957,-14.44441 29.118741,-10.97191 4.394784,3.4725 -5.454159,25.47434 -3.939789,30.86684 1.514371,5.3925 21.377572,19.05031 19.433091,24.30306 -1.944481,5.25275 -25.91296,2.68479 -30.573568,5.79141 -4.660607,3.10663 -11.511885,26.218151 -17.108425,25.992029 z"
       inkscape:transform-center-x="25.641366"
       inkscape:transform-center-y="-2.8822534"
       style="fill:#4a4f51;fill-opacity:1;stroke-width:0.17219295"
       transform="rotate(177.59358,-1.5578933,3.1103846)" />
    <path
       style="fill:none;fill-opacity:1;stroke:#4a4f51;stroke-width:9.77099991;stroke-linecap:round;stroke-linejoin:miter;stroke-miterlimit:4;stroke-dasharray:none;stroke-opacity:1"
       d="m 149.50489,196.28865 c 13.20725,-10.11507 22.16917,-25.60478 24.35567,-42.09614 2.1865,-16.49137 -2.42934,-33.78128 -12.54441,-46.98853 C 151.20109,93.996734 135.71138,85.034813 119.22001,82.84831 102.72865,80.661807 85.438732,85.277652 72.231485,95.392717 59.024238,105.50778 50.062317,120.99749 47.875814,137.48886 c -2.186503,16.49136 2.429342,33.78128 12.544407,46.98853 10.115065,13.20724 25.604777,22.16916 42.096139,24.35567 16.49137,2.1865 33.78128,-2.42934 46.98853,-12.54441"
       id="path50"
       inkscape:connector-curvature="0"
       inkscape:path-effect="#path-effect52"
       inkscape:original-d="M 149.50489,196.28865 C 190.39582,95.22289 326.57079,37.860881 72.231485,95.392717 -34.104957,119.44651 148.95936,158.58986 149.50489,196.28865"
       sodipodi:nodetypes="csc"
       inkscape:transform-center-x="134.46923"
       inkscape:transform-center-y="-0.00099111858" />
    <path
       style="fill:none;stroke:#ffffff;stroke-width:7.45038033;stroke-linecap:round;stroke-linejoin:miter;stroke-miterlimit:4;stroke-dasharray:none;stroke-opacity:1"
       d="m 130.88511,137.98502 c -12.06128,4.74793 -17.64672,13.38136 -23.53159,21.83514 L 95.103635,147.95889"
       id="path14266"
       inkscape:connector-curvature="0"
       sodipodi:nodetypes="ccc" />
  </g>
</svg>
