<?xml version="1.0" encoding="UTF-8" standalone="no"?>
<svg
   xmlns:dc="http://purl.org/dc/elements/1.1/"
   xmlns:cc="http://creativecommons.org/ns#"
   xmlns:rdf="http://www.w3.org/1999/02/22-rdf-syntax-ns#"
   xmlns:svg="http://www.w3.org/2000/svg"
   xmlns="http://www.w3.org/2000/svg"
   id="SVGRoot"
   version="1.1"
   viewBox="0 0 96 96"
   height="96px"
   width="96px">
  <defs
     id="defs107" />
  <metadata
     id="metadata110">
    <rdf:RDF>
      <cc:Work
         rdf:about="">
        <dc:format>image/svg+xml</dc:format>
        <dc:type
           rdf:resource="http://purl.org/dc/dcmitype/StillImage" />
        <dc:title></dc:title>
      </cc:Work>
    </rdf:RDF>
  </metadata>
  <g
     id="layer1">
    <g
       transform="matrix(0.70160663,0,0,0.70160663,-29.785855,-54.322793)"
       id="layer1-1">
      <path
         transform="rotate(177.59358,-1.5578933,3.1103846)"
         style="fill:#4a4f51;fill-opacity:1;stroke-width:0.17219295"
         d="m -110.1886,-96.448671 c -5.59654,-0.226123 -10.56093,-23.815049 -14.95572,-27.287549 -4.39478,-3.4725 -28.4923,-2.8466 -30.00668,-8.2391 -1.51437,-5.3925 19.38595,-17.4033 21.33043,-22.65604 1.94448,-5.25275 -6.09733,-27.97745 -1.43672,-31.08408 4.66061,-3.10662 22.54211,13.05922 28.13864,13.28534 5.59654,0.22613 24.723957,-14.44441 29.118741,-10.97191 4.394784,3.4725 -5.454159,25.47434 -3.939789,30.86684 1.514371,5.3925 21.377572,19.05031 19.433091,24.30306 -1.944481,5.25275 -25.91296,2.68479 -30.573568,5.79141 -4.660607,3.10663 -11.511885,26.218151 -17.108425,25.992029 z"
         id="path40" />
      <path
         id="path50"
         d="m 149.50489,196.28865 c 13.20725,-10.11507 22.16917,-25.60478 24.35567,-42.09614 2.1865,-16.49137 -2.42934,-33.78128 -12.54441,-46.98853 C 151.20109,93.996734 135.71138,85.034813 119.22001,82.84831 102.72865,80.661807 85.438732,85.277652 72.231485,95.392717 59.024238,105.50778 50.062317,120.99749 47.875814,137.48886 c -2.186503,16.49136 2.429342,33.78128 12.544407,46.98853 10.115065,13.20724 25.604777,22.16916 42.096139,24.35567 16.49137,2.1865 33.78128,-2.42934 46.98853,-12.54441"
         style="fill:none;fill-opacity:1;stroke:#4a4f51;stroke-width:9.77099991;stroke-linecap:round;stroke-linejoin:miter;stroke-miterlimit:4;stroke-dasharray:none;stroke-opacity:1" />
      <path
         id="path14266"
         d="m 130.88511,137.98502 c -12.06128,4.74793 -17.64672,13.38136 -23.53159,21.83514 L 95.103635,147.95889"
         style="fill:none;stroke:#ffffff;stroke-width:7.45038033;stroke-linecap:round;stroke-linejoin:miter;stroke-miterlimit:4;stroke-dasharray:none;stroke-opacity:1" />
    </g>
  </g>
</svg>
